<svg width="173" height="206" viewBox="0 0 173 206" fill="none" xmlns="http://www.w3.org/2000/svg">
<path d="M88.0066 181.004C66.24 175.158 48.3195 161.7 47.4326 138.142C46.5458 114.584 65.1843 94.8083 92.8594 97.3015L92.8595 89.4575C92.8702 85.4282 97.8364 83.9634 100.88 86.5299L130.016 110.259C132.171 112.08 132.166 115.419 129.997 117.339L100.88 141.491C97.8213 144.211 92.8487 142.172 92.8594 138.142L92.8595 130.137C89.9436 129.684 87.7226 129.558 86.152 129.684C60.9453 131.7 63.0693 174.284 106.606 172.072C125.311 171.121 155.754 150.342 157 118.087C157 69.4672 96.6001 53.6544 111.795 20.3253C113.324 16.9714 107.168 15.4578 103.294 16.9315C87.7212 21.2215 70.5417 30.6456 60.7677 58.6253C59.5169 62.206 57.9439 70.6625 56.6003 74.1832C55.3578 77.7158 53.5656 85.6277 48.604 85.2081C42.103 84.6583 44.3681 74.0403 45.7888 69.4672C46.9857 65.6141 41.6496 62.3589 36.7607 67.3945C28.4607 75.9438 20.1627 87.3767 16.9574 105.218C15.6984 112.219 15.6297 122.121 17.0585 130.426C23.2618 166.609 54.7631 189.702 85.4137 189.341C92.9946 189.251 93.2007 182.399 88.0066 181.004Z"/>
<style>path{fill:#000}@media (prefers-color-scheme:dark){path{fill:#fff}}</style>
</svg>
